<?xml version="1.0" encoding="UTF-8"?><svg id="Layer_2" xmlns="http://www.w3.org/2000/svg" viewBox="0 0 128.6 87.37"><defs><style>.cls-1{fill:#333;}.cls-2{fill:#2b2b2b;}.cls-3{fill:#2c2c2c;}.cls-4{fill:#5c5c5c;}.cls-5{fill:#383838;}.cls-6{fill:#262626;}.cls-7{fill:#4d4d4d;}</style></defs><g id="Car"><g id="Car-2"><g id="Wheels"><g id="Front_Wheel"><path d="M50.92,64.01c2.24-1.29,4.27-1.43,5.75-.61l5.92,3.42c1.53,.83,2.48,2.67,2.49,5.3,.01,5.19-3.64,11.52-8.16,14.13-2.24,1.29-4.28,1.43-5.76,.61l-5.98-3.45c-1.49-.85-2.41-2.67-2.42-5.26-.01-5.19,3.64-11.52,8.16-14.12"/><path class="cls-3" d="M56.88,71.56c-2.54,1.47-4.6,5.03-4.59,7.95s2.08,4.1,4.62,2.63,4.6-5.03,4.59-7.95c0-1.49-.54-2.52-1.4-2.99s-1.97-.37-3.22,.35"/></g><g id="Back_Wheel"><path d="M110.14,26.22c2.24-1.29,4.27-1.43,5.75-.61l5.92,3.42c1.53,.83,2.48,2.67,2.49,5.3,.01,5.19-3.64,11.52-8.16,14.13-2.24,1.29-4.28,1.43-5.76,.61l-5.98-3.45c-1.49-.85-2.41-2.67-2.42-5.26-.01-5.19,3.64-11.52,8.16-14.12"/><path class="cls-3" d="M116.1,33.76c-2.54,1.47-4.6,5.03-4.59,7.95s2.08,4.1,4.62,2.63,4.6-5.03,4.59-7.95c0-1.49-.54-2.52-1.4-2.99s-1.97-.37-3.22,.35"/></g></g><g id="Chassis"><polygon points="65.87 70.99 57.86 66.37 61.58 62.42 65.87 64.9 65.87 70.99"/><polygon points="125.02 32.42 117 27.79 120.72 23.85 125.02 26.33 125.02 32.42"/><polygon class="cls-7" points="51.34 1.79 88.61 22.84 46.54 47.13 9.27 26.08 51.34 1.79"/><polygon class="cls-5" points="9.27 26.08 46.54 47.13 33.17 67.94 0 49.26 9.27 26.08"/><polygon class="cls-4" points="74.42 7.68 107.6 26.36 88.61 22.84 51.34 1.79 74.42 7.68"/><polygon class="cls-6" points="0 49.26 33.17 67.93 33.17 83.97 0 65.3 0 49.26"/><polygon class="cls-2" points="33.17 83.97 46.54 82.16 46.54 47.13 33.17 67.93 33.17 83.97"/><polygon class="cls-7" points="74.42 7.68 98.71 0 128.6 16.78 107.6 26.36 74.42 7.68"/><path class="cls-1" d="M88.61,22.84l-42.07,24.29v35.02l1.37-.79c.29-5.58,4.17-12.11,8.95-14.87,2.45-1.41,4.67-1.57,6.3-.69,1.55,.84,2.56,2.64,2.71,5.19l22.74-13.13V22.84Z"/><path class="cls-5" d="M128.6,16.78l-21,9.57-18.99-3.51V57.87l18.52-12c-.01-.22-.02-1.39-.02-1.61-.02-5.72,4.01-12.68,8.98-15.55,2.45-1.41,4.67-1.57,6.3-.69,1.39,.75,2.34,2.27,2.63,4.41l3.58-2.5v-13.14Z"/><polygon points="10.94 30.76 39.86 47.13 31.35 62.42 5.68 48.08 10.94 30.76"/><polygon points="75.75 9.21 101.53 23.62 86.44 20.82 57.41 4.53 75.75 9.21"/><polygon points="41.05 62.89 46.54 52.5 69.83 39.06 69.83 50.97 54.54 59.8 41.05 62.89"/><polygon points="72.8 37.34 72.8 49.26 101.96 32.42 101.96 28.13 88.74 28.13 72.8 37.34"/></g></g></g></svg>