<svg xmlns="http://www.w3.org/2000/svg" viewBox="0 0 135.91 122.25"><defs><style>.cls-1,.cls-3{fill:#b4b4b4;}.cls-1{stroke:#000;stroke-linecap:round;stroke-linejoin:round;stroke-width:0.5px;}.cls-2{fill:#e5e5e5;}.cls-4{fill:#fff;}</style></defs><g id="Layer_2" data-name="Layer 2"><g id="Layer_1-2" data-name="Layer 1"><g id="Couch"><path class="cls-1" d="M133.4,60.85h0l-.49-.28L126.73,57c-3.2-2.35-9.57-.51-15.68,2.28l-8.44-4.88v-.52L42.77,19.33V12.56c0-2.7-.84-4.39-2.25-5.33h0A4,4,0,0,0,40,6.93L33.84,3.37l.08.19c-3.1-2.28-9.17-.66-15.12,1.93L9.72.25.25,5.72V68.37l4.64,2.68,4.63-2.68V62.74L93.14,111l33.25-19.2v5.63l4.63,2.68,4.64-2.68V66.18C135.66,63.49,134.82,61.8,133.4,60.85Z"/><polygon class="cls-1" points="88.5 119.32 93.14 122 97.77 119.32 97.77 108.34 93.14 111.02 88.5 108.34 88.5 119.32"/><polygon class="cls-2" points="0.25 57.39 0.25 68.37 4.89 71.05 4.89 60.06 0.25 57.39"/><polygon class="cls-3" points="9.52 57.39 9.52 68.37 4.89 71.05 4.89 60.06 9.52 57.39"/><polygon class="cls-2" points="126.39 86.47 126.39 97.45 131.02 100.13 131.02 89.14 126.39 86.47"/><polygon class="cls-3" points="135.66 86.47 135.66 97.45 131.02 100.13 131.02 89.14 135.66 86.47"/><polygon class="cls-4" points="111.17 59.35 97.61 51.52 97.61 71.03 111.17 59.35"/><path class="cls-4" d="M33.84,3.37l.08.19C26.66-1.77,3,14.25,3,14.25L7.7,22.88,40.52,7.22Z"/><path class="cls-3" d="M.25,57.39,42.77,32.84V12.56c0-16.91-33.05,5.56-33.05,5.56V.25L.25,5.72Z"/><polygon class="cls-2" points="0.25 57.39 0.25 5.72 93.14 59.35 93.14 111.02 0.25 57.39"/><path class="cls-4" d="M126.73,57h0c-7.26-5.33-30.82,10.88-30.82,10.88l4.67,8.63L133.4,60.85Z"/><path class="cls-3" d="M93.14,111l42.52-24.56V66.18c0-16.9-33,5.57-33,5.57V53.88l-9.47,5.47Z"/><polygon class="cls-4" points="9.72 0.25 0.25 5.72 93.14 59.35 102.61 53.88 9.72 0.25"/><polygon class="cls-2" points="88.5 108.34 88.5 119.32 93.14 122 93.14 111.02 88.5 108.34"/><polygon class="cls-3" points="97.77 108.34 97.77 119.32 93.14 122 93.14 111.02 97.77 108.34"/></g></g></g></svg>