<svg xmlns="http://www.w3.org/2000/svg" viewBox="0 0 1000.06 1000.06"><defs><style>.a{fill:#6b1e10;}.b{fill:#0b0a0a;}.c{fill:#fefefe;}</style></defs><path class="a" d="M0,0V1000.06H1000.06V0Z"/><path class="b" d="M325.29,472c87.91,228.09-127.65,136-95.83,257.45,54.34,67.78,171.1,44.89,227.47-11C524,652.88,496,548.41,455,478c-15.94-33.51-39.36-80.24-44-122.73-30.33-9.15-62.27-8.7-94-11.14C309.51,381.62,310.94,424.48,325.29,472Z"/><path class="c" d="M581.77,597.73c15.43.1,31.51,6.3,40.13,19.64,19.06,32-24.57,59-52,63-15.71,2-32.78,3.18-47.17-4.71-12.79-6.8-20.13-20.89-15.35-35C516.85,609.4,552.64,597.73,581.77,597.73Zm-30.43,59.68a70.21,70.21,0,0,0,28.86-5.91,47.49,47.49,0,0,0,15-10.14c4.92-5.06,4-11.82-2-15.29-5.95-3-12.82-2.74-19.26-2.25A66.1,66.1,0,0,0,541,635.89a17.65,17.65,0,0,0-6.64,8.58c-2.37,6.24,4.32,11.18,9.79,12.07C547,657,549.88,657.24,551.34,657.41Z"/><path class="c" d="M606.42,366.7c-58.19-4.78-23.8-66,18.4-64.71,20.8.05,37,27,24.57,44.72C639.94,361.3,623.56,366.36,606.42,366.7Zm8-27.47c1.22,0,2.59-.2,5.34-1.79s3.15-5.28-.25-6.61C613.75,328.55,604.71,338.52,614.38,339.23Z"/><path class="c" d="M728.53,584.87c-18.24-44-63.1-71.12-78.21-116.81-14.19-38.87,21.14-67.61,38.91-97.94,18.29-31.18,27.07-75.49,4-106.39-86.87-104.09-170,35.44-214.06,110.2C443.36,438.22,411.62,505.72,398,578.54c-6.76,36.11-13.2,73.27-6.52,109.87,4.78,24.63,15.51,49.52,35.09,65.76,30.33,23.83,70,34.47,108,37C641,800.4,774.22,699.41,728.53,584.87Zm-18.67,68.67c-20.2,76.08-107.67,119.24-182.32,112.17-34.61-5.09-73.67-14.35-96.48-42.64-26.35-38.35-17.91-87.45-10.94-130.54C439.59,488,493.38,386.74,556.49,302h0c23.16-29.25,46.12-50.79,76.32-48.59,23,3.28,45.71,22.7,48.7,47,3.83,25.95-9.93,51-23.43,72.17-8.56,11.75-18.42,22.56-25.12,35.59-13.47,23.57-13.87,52.48-2.92,77.11C653.65,542.91,730.49,582.8,709.86,653.54Z"/><path class="b" d="M317,344.15c31.69,2.44,63.63,2,94,11.14-4-35.87,5.46-68.72,44.06-88,47.81-23,117.34,70.5,145-5.4C596.08,108.4,353.11,163.8,317,344.15Z"/></svg>