<svg xmlns="http://www.w3.org/2000/svg" xmlns:xlink="http://www.w3.org/1999/xlink" viewBox="0 0 44.77 27.7"><defs><style>.cls-1{fill:url(#linear-gradient);}.cls-2{fill:#e5e5e5;}.cls-3{fill:#b4b4b4;}.cls-4{fill:#fff;}</style><linearGradient id="linear-gradient" x1="32.52" y1="20.61" x2="34.08" y2="20.61" gradientUnits="userSpaceOnUse"><stop offset="0" stop-color="#e5e5e5"/><stop offset="1" stop-color="#b4b4b4"/></linearGradient></defs><g id="Layer_2" data-name="Layer 2"><g id="Layer_1-2" data-name="Layer 1"><path d="M33.34,27.7a2,2,0,0,1-.92-.21L.45,9A.8.8,0,0,1,0,8.4V7.54a.2.2,0,0,1,0-.11A.74.74,0,0,1,.41,7L10.57.23A1.81,1.81,0,0,1,11.48,0a1.87,1.87,0,0,1,.9.22L35.46,13.55l0,0,.22.14,8.62,5a.74.74,0,0,1,.42.65v1.61a.72.72,0,0,1-.42.66L34.18,27.51A1.8,1.8,0,0,1,33.34,27.7Z"/><path class="cls-1" d="M32.52,13.72V27.31a1.78,1.78,0,0,0,1.56,0V14.63Z"/><path class="cls-2" d="M12.28,2a1.68,1.68,0,0,0-1.6,0L.88,7.73.2,7.54v.85a.62.62,0,0,0,.35.47l32,18.45V13.72Z"/><path class="cls-3" d="M35.4,13.74l-1.32.89v12.7l10.17-5.91a.53.53,0,0,0,.32-.48h0V19.31Z"/><path class="cls-4" d="M44.25,18.85,12.28.4a1.68,1.68,0,0,0-1.6,0L.51,7.14c-.42.24-.42.65,0,.91l32,18.46a1.78,1.78,0,0,0,1.56,0l10.17-6.75c.46-.26.42-.68,0-.93"/></g></g></svg>