<svg xmlns="http://www.w3.org/2000/svg" xmlns:xlink="http://www.w3.org/1999/xlink" viewBox="0 0 40.35 164.24"><defs><style>.cls-1{fill:none;stroke:#000;stroke-linecap:round;stroke-linejoin:round;stroke-width:0.5px;}.cls-2{fill:url(#linear-gradient);}.cls-3{fill:#fff;}.cls-4{fill:#333;}.cls-5{fill:#707070;}.cls-6{fill:url(#linear-gradient-2);}.cls-7{fill:#953523;}</style><linearGradient id="linear-gradient" x1="2" y1="153.42" x2="38.5" y2="153.42" gradientUnits="userSpaceOnUse"><stop offset="0" stop-color="#e5e5e5"/><stop offset="1" stop-color="#b4b4b4"/></linearGradient><linearGradient id="linear-gradient-2" x1="0.25" y1="26.49" x2="40.1" y2="26.49" xlink:href="#linear-gradient"/></defs><g id="Layer_2" data-name="Layer 2"><g id="Layer_1-2" data-name="Layer 1"><path class="cls-1" d="M34.31,41.84c3.88-2.25,5.81-5.21,5.79-8.16h0L38.43,10.82h0c0-2.71-1.82-5.41-5.39-7.47-7.15-4.13-18.7-4.14-25.81,0-3.55,2.06-5.32,4.76-5.3,7.47h0L.25,33.68h0c0,3,2,5.91,5.88,8.16a27.86,27.86,0,0,0,12.18,3.33v94.31a25.23,25.23,0,0,0-11,3C3.75,144.58,2,147.29,2,150H2v3.43H2c0,2.71,1.81,5.42,5.39,7.48,7.14,4.13,18.7,4.13,25.8,0,3.56-2.07,5.32-4.77,5.31-7.48h0V150h0c0-2.7-1.82-5.41-5.39-7.47a25.28,25.28,0,0,0-10.92-3V45.17A27.66,27.66,0,0,0,34.31,41.84Z"/><path class="cls-2" d="M38.5,150h-1a11.87,11.87,0,0,0-4.36-4c-7.15-4.12-18.7-4.13-25.81,0A11.77,11.77,0,0,0,3,150H2v3.43H2c0,2.71,1.81,5.42,5.39,7.48,7.14,4.13,18.7,4.13,25.8,0,3.56-2.07,5.32-4.77,5.31-7.48h0Z"/><path class="cls-3" d="M33.11,142.52c-7.15-4.13-18.7-4.14-25.81,0s-7.06,10.82.09,14.95,18.7,4.12,25.8,0,7.07-10.83-.08-14.95"/><ellipse class="cls-4" cx="20.14" cy="12.04" rx="17.62" ry="11.2"/><path class="cls-5" d="M22.19,17.9a1,1,0,0,0-.57-.8,3,3,0,0,0-2.75,0,.94.94,0,0,0-.56.79h0V149.83h0a1,1,0,0,0,.57.79,3,3,0,0,0,2.75,0,.93.93,0,0,0,.56-.79Z"/><path class="cls-6" d="M38.43,10.82s-1.1-.5-2.82-1.2c.64,2.7-.77,5.53-4.34,7.6-6.09,3.54-16,3.54-22.11,0C4.72,14.67,3.53,11,5.49,7.76L1.93,10.82.25,33.68h0c0,3,2,5.91,5.88,8.16,7.8,4.51,20.43,4.51,28.18,0,3.88-2.25,5.81-5.21,5.79-8.16h0Z"/><path class="cls-3" d="M33,3.35c-7.15-4.13-18.7-4.14-25.81,0s-7.06,10.82.08,15,18.71,4.12,25.81,0S40.18,7.47,33,3.35ZM31.27,17.22c-6.09,3.54-16,3.54-22.11,0S3,8,9.08,4.42s16-3.54,22.12,0S37.36,13.68,31.27,17.22Z"/><path class="cls-3" d="M21.2,15.25a2.25,2.25,0,0,0-2.05,0,.71.71,0,0,0-.43.59V16a.76.76,0,0,0,.43.6,2.33,2.33,0,0,0,2.06,0,.73.73,0,0,0,.42-.6v-.13A.71.71,0,0,0,21.2,15.25Z"/><path class="cls-7" d="M23.44,12.22a3.26,3.26,0,1,0-6.27,1.25h0l0,0c.8,1.55,1.7,2.16,1.7,3.22v1.07h0a.65.65,0,0,0,.37.52,2,2,0,0,0,1.81,0,.65.65,0,0,0,.37-.52V16.74c0-1.06.91-1.67,1.71-3.22,0,0,0,0,0,0h0A3.25,3.25,0,0,0,23.44,12.22Z"/><path class="cls-3" d="M21.21,16.57a2.33,2.33,0,0,1-2.06,0,.76.76,0,0,1-.43-.6v1.81a.75.75,0,0,0,.43.6,2.27,2.27,0,0,0,2.06,0,.73.73,0,0,0,.42-.6V16A.73.73,0,0,1,21.21,16.57Z"/></g></g></svg>