<svg xmlns="http://www.w3.org/2000/svg" xmlns:xlink="http://www.w3.org/1999/xlink" viewBox="0 0 71.43 98.04"><defs><style>.cls-1,.cls-2{fill:none;}.cls-2{stroke:#000;stroke-linecap:round;stroke-linejoin:round;stroke-width:0.5px;}.cls-3{fill:#fff;}.cls-4{fill:#b4b4b4;}.cls-5{fill:#d3d3d3;}.cls-6{fill:#6b1e10;}.cls-7{isolation:isolate;}.cls-8{clip-path:url(#clip-path);}.cls-9{fill:#0a0909;}</style><clipPath id="clip-path"><polygon class="cls-1" points="23.93 56.43 24.01 30.08 42.95 41.01 42.87 67.36 23.93 56.43"/></clipPath></defs><g id="Layer_2" data-name="Layer 2"><g id="Layer_1-2" data-name="Layer 1"><g id="Screen"><polygon class="cls-2" points="4.5 1.18 4.37 0.76 4.37 1.11 2.89 0.25 0.25 1.77 0.25 1.77 0.25 58.36 68.54 97.79 68.54 97.79 71.18 96.27 71.18 39.68 4.5 1.18"/><polygon class="cls-3" points="0.25 54.92 2.89 53.4 71.18 92.82 68.54 94.35 0.25 54.92"/><polygon class="cls-4" points="7.01 55.83 4.37 57.35 4.37 0.76 7.01 9.12 7.01 55.83"/><path class="cls-5" d="M.25,1.77V58.36L68.54,97.79V41.2ZM64.38,91.94l-60-34.63V7.62l60,34.63Z"/><polygon class="cls-4" points="71.18 96.27 68.54 97.79 68.54 41.2 71.18 39.68 71.18 96.27"/><polygon class="cls-3" points="0.25 1.77 2.89 0.25 71.18 39.68 68.54 41.2 0.25 1.77"/><polygon class="cls-6" points="7.01 55.83 64.38 88.9 64.38 42.25 7.01 9.12 7.01 55.83"/><g class="cls-7"><g class="cls-8"><path class="cls-9" d="M32.44,48a17.13,17.13,0,0,0-1.3,4.14,9.58,9.58,0,0,0,.39,5.79c.1.21.22.41.34.61a3.09,3.09,0,0,0,.62-.25C35,56.88,34,51.84,32.45,48v0m-5.09-8.63a14,14,0,0,0,.29,5.62c3.23,11.58-4.74,3.06-3.58,8.9a9,9,0,0,0,3.55,3.83,6.5,6.5,0,0,0,3.45.95,9.43,9.43,0,0,1-1-3.06A13.43,13.43,0,0,1,30.32,51a16.18,16.18,0,0,1,1.61-4.61,23.1,23.1,0,0,1-1.1-4.61,25.32,25.32,0,0,0-3.48-2.48"/><path class="cls-3" d="M36,57.66l-.26-.19c-.21-.15-.45-.51-.36-.72a.33.33,0,0,1,.24-.23,2,2,0,0,1,1.22.19l.25.13a1.79,1.79,0,0,1,.46.38c.23.28.26.58.08.7a1,1,0,0,1-.56.11A2.53,2.53,0,0,1,36,57.66m1.13-1.89c-1.07-.62-2.4-.89-2.75.24a2.11,2.11,0,0,0,.56,1.82,3.64,3.64,0,0,0,1,.85,6,6,0,0,0,.72.36c1,.41,2.63.19,1.93-1.57a3.69,3.69,0,0,0-1.49-1.7"/><path class="cls-3" d="M38.36,45.47c-.32-.22-.08-.42.13-.3l.06,0c.13.13.11.28,0,.29a.46.46,0,0,1-.2,0m.34-1.39c-1.53-.89-2.77,1-.63,2.39.63.35,1.24.48,1.59.06s-.13-2-.9-2.42l-.06,0"/><path class="cls-3" d="M38.89,41a2.41,2.41,0,0,0-1.18-.35,7.86,7.86,0,0,1,.13,1.21,1.91,1.91,0,0,1,1.07.28l.15.1a4.91,4.91,0,0,1,1.8,3A3.22,3.22,0,0,1,40,47.82a5.47,5.47,0,0,0-.94,1A3.88,3.88,0,0,0,38.93,52c.86,2.95,3.71,6.3,2.93,8.86s-3.55,2.77-6.17,1.26c-.2-.12-.4-.24-.59-.38a12.27,12.27,0,0,1-3.23-3.27c-.12-.2-.24-.4-.34-.61a9.58,9.58,0,0,1-.39-5.79A17.13,17.13,0,0,1,32.44,48a17.57,17.57,0,0,1,3.79-5.31c.1-.08.19-.17.29-.24a5.6,5.6,0,0,1-1-.86,14.3,14.3,0,0,0-2.18,2.51,25,25,0,0,0-1.42,2.36A16.18,16.18,0,0,0,30.32,51a13.43,13.43,0,0,0-.25,4.54,9.43,9.43,0,0,0,1,3.06c.1.16.19.33.3.49a14.23,14.23,0,0,0,4,3.88,5.29,5.29,0,0,0,.5.32c3.84,2.22,8.31.65,6.7-5-.67-2.26-2.33-4.37-2.88-6.64-.52-2,.79-2.43,1.45-3.34a4.44,4.44,0,0,0,.16-4.44,6.86,6.86,0,0,0-2.4-3"/><path class="cls-9" d="M34.49,36.13c-2.75-1.59-6.32-1-7.14,3.19a25.32,25.32,0,0,1,3.48,2.48C30.69,40.19,31,39,32.47,39a1.31,1.31,0,0,1,.64.21,8.64,8.64,0,0,1,1.76,1.63l.66.7a5.6,5.6,0,0,0,1,.86l0,0c.52.3,1,.24,1.28-.55v0a7.86,7.86,0,0,0-.13-1.21,6.7,6.7,0,0,0-3.22-4.49"/></g></g></g></g></g></svg>