<svg xmlns="http://www.w3.org/2000/svg" viewBox="0 0 30.4 47.92"><defs><style>.cls-1,.cls-5{stroke:#000;stroke-miterlimit:10;}.cls-1{stroke-width:0.5px;}.cls-2{fill:#fff;}.cls-3{fill:#707070;}.cls-4{fill:#d3d3d3;}.cls-5{stroke-width:1.31px;}</style></defs><g id="Layer_2" data-name="Layer 2"><g id="Layer_1-2" data-name="Layer 1"><g id="Left_Speak" data-name="Left Speak"><polygon class="cls-1" points="10.22 0.27 0.25 11.43 0.25 44.39 20.18 47.65 30.15 36.49 30.15 3.53 10.22 0.27"/><polygon class="cls-2" points="20.18 14.7 30.15 3.53 10.22 0.27 0.25 11.43 20.18 14.7"/><polygon class="cls-3" points="20.18 47.65 30.15 36.49 30.15 3.53 20.18 14.7 20.18 47.65"/><polygon class="cls-4" points="0.25 44.39 0.25 11.43 20.18 14.7 20.18 47.65 0.25 44.39"/><path class="cls-5" d="M17.24,36a5.75,5.75,0,0,1-7,5.72,8.52,8.52,0,0,1-7-8c0-3.8,3.15-6.36,7-5.73A8.53,8.53,0,0,1,17.24,36Z"/><ellipse cx="10.22" cy="20.76" rx="1.48" ry="1.75" transform="translate(-11.85 13.79) rotate(-46.27)"/></g></g></g></svg>