<svg xmlns="http://www.w3.org/2000/svg" viewBox="0 0 129.98 129.53"><defs><style>.cls-1{fill:none;stroke:#000;stroke-miterlimit:10;stroke-width:0.5px;}.cls-2{fill:#b4b4b4;}.cls-3{fill:#d3d3d3;}.cls-4{fill:#e5e5e5;}.cls-5{fill:#fff;}</style></defs><g id="Layer_2" data-name="Layer 2"><g id="Layer_1-2" data-name="Layer 1"><g id="Table"><polygon class="cls-1" points="37.87 0.29 0.25 22.01 0.25 76.2 5.64 79.31 11.03 76.2 11.03 39.13 32.48 51.52 32.48 57.59 37.87 60.71 43.13 57.67 86.72 82.83 86.72 126.13 92.11 129.24 97.5 126.13 97.5 82.83 118.95 70.45 118.95 107.52 124.34 110.63 129.73 107.52 129.73 53.32 37.87 0.29"/><polygon class="cls-2" points="11.03 32.91 11.03 76.2 5.64 79.31 5.64 30.16 43.26 8.44 43.26 57.59 37.87 60.71 37.87 17.41 11.03 32.91"/><polygon class="cls-3" points="118.95 64.22 118.95 107.52 124.34 110.63 124.34 61.48 32.48 8.44 32.48 57.59 37.87 60.71 37.87 17.41 118.95 64.22"/><polygon class="cls-4" points="86.72 82.83 86.72 126.13 92.11 129.24 92.11 75.04 0.25 22.01 0.25 76.2 5.64 79.31 5.64 36.02 86.72 82.83"/><polygon class="cls-2" points="97.5 82.83 97.5 126.13 92.11 129.24 92.11 75.04 129.73 53.32 129.73 107.52 124.34 110.63 124.34 67.34 97.5 82.83"/><polygon class="cls-5" points="0.25 22.01 92.11 75.04 129.73 53.32 37.87 0.29 0.25 22.01"/></g></g></g></svg>