<?xml version="1.0" encoding="UTF-8"?><svg id="Layer_2" xmlns="http://www.w3.org/2000/svg" viewBox="0 0 4180.19 3214.76"><defs><style>.cls-1{fill:#333;}.cls-2{fill:#404040;}.cls-3,.cls-4{fill:#2b2b2b;}.cls-5{fill:none;}.cls-5,.cls-4,.cls-6{stroke:#000;stroke-miterlimit:10;}.cls-4,.cls-6{stroke-width:.75px;}.cls-6{fill:#3f3f3f;}</style></defs><g id="Bridge"><g><g><g><path class="cls-6" d="m3235.31,697.67v480.61c0,4.49-6.1,8.13-13.62,8.13s-13.62-3.64-13.62-8.13v-480.61"/><path class="cls-6" d="m3339.17,637.71v480.61c0,4.49-6.1,8.13-13.62,8.13s-13.62-3.64-13.62-8.13v-480.61"/><path class="cls-6" d="m3443.04,577.75v480.61c0,4.49-6.1,8.13-13.62,8.13s-13.62-3.64-13.62-8.13v-480.61"/><path class="cls-6" d="m3546.9,517.78v480.61c0,4.49-6.1,8.13-13.62,8.13s-13.62-3.64-13.62-8.13v-480.61"/><path class="cls-6" d="m3650.76,457.82v480.61c0,4.49-6.1,8.13-13.62,8.13s-13.62-3.64-13.62-8.13v-480.61"/><path class="cls-6" d="m3754.62,397.85v480.61c0,4.49-6.1,8.13-13.62,8.13s-13.62-3.64-13.62-8.13v-480.61"/><path class="cls-6" d="m3858.48,337.89v480.61c0,4.49-6.1,8.13-13.62,8.13s-13.62-3.64-13.62-8.13v-480.61"/><path class="cls-6" d="m3962.35,277.92v480.61c0,4.49-6.1,8.13-13.62,8.13s-13.62-3.64-13.62-8.13v-480.61"/><path class="cls-6" d="m4066.21,217.96v480.61c0,4.49-6.1,8.13-13.62,8.13s-13.62-3.64-13.62-8.13V217.96"/><path class="cls-6" d="m4170.07,157.99v480.61c0,4.49-6.1,8.13-13.62,8.13s-13.62-3.64-13.62-8.13V157.99"/><path class="cls-6" d="m2196.69,1297.32v480.61c0,4.49-6.1,8.13-13.62,8.13s-13.62-3.64-13.62-8.13v-480.61"/><path class="cls-6" d="m2300.55,1237.36v480.61c0,4.49-6.1,8.13-13.62,8.13s-13.62-3.64-13.62-8.13v-480.61"/><path class="cls-6" d="m2404.41,1177.39v480.61c0,4.49-6.1,8.13-13.62,8.13s-13.62-3.64-13.62-8.13v-480.61"/><path class="cls-6" d="m2508.28,1117.43v480.61c0,4.49-6.1,8.13-13.62,8.13s-13.62-3.64-13.62-8.13v-480.61"/><path class="cls-6" d="m2612.14,1057.46v480.61c0,4.49-6.1,8.13-13.62,8.13s-13.62-3.64-13.62-8.13v-480.61"/><path class="cls-6" d="m2716,997.5v480.61c0,4.49-6.1,8.13-13.62,8.13s-13.62-3.64-13.62-8.13v-480.61"/><path class="cls-6" d="m2819.86,937.53v480.61c0,4.49-6.1,8.13-13.62,8.13s-13.62-3.64-13.62-8.13v-480.61"/><path class="cls-6" d="m2923.72,877.57v480.61c0,4.49-6.1,8.13-13.62,8.13s-13.62-3.64-13.62-8.13v-480.61"/><path class="cls-6" d="m3027.59,817.6v480.61c0,4.49-6.1,8.13-13.62,8.13s-13.62-3.64-13.62-8.13v-480.61"/><path class="cls-6" d="m3131.45,757.64v480.61c0,4.49-6.1,8.13-13.62,8.13s-13.62-3.64-13.62-8.13v-480.61"/><path class="cls-6" d="m1158.07,1896.97v480.61c0,4.49-6.1,8.13-13.62,8.13s-13.62-3.64-13.62-8.13v-480.61"/><path class="cls-6" d="m1261.93,1837.01v480.61c0,4.49-6.1,8.13-13.62,8.13s-13.62-3.64-13.62-8.13v-480.61"/><path class="cls-6" d="m1365.79,1777.04v480.61c0,4.49-6.1,8.13-13.62,8.13s-13.62-3.64-13.62-8.13v-480.61"/><path class="cls-6" d="m1469.65,1717.08v480.61c0,4.49-6.1,8.13-13.62,8.13s-13.62-3.64-13.62-8.13v-480.61"/><path class="cls-6" d="m1573.52,1657.11v480.61c0,4.49-6.1,8.13-13.62,8.13s-13.62-3.64-13.62-8.13v-480.61"/><path class="cls-6" d="m1677.38,1597.15v480.61c0,4.49-6.1,8.13-13.62,8.13s-13.62-3.64-13.62-8.13v-480.61"/><path class="cls-6" d="m1781.24,1537.18v480.61c0,4.49-6.1,8.13-13.62,8.13s-13.62-3.64-13.62-8.13v-480.61"/><path class="cls-6" d="m1885.1,1477.22v480.61c0,4.49-6.1,8.13-13.62,8.13s-13.62-3.64-13.62-8.13v-480.61"/><path class="cls-6" d="m1988.96,1417.25v480.61c0,4.49-6.1,8.13-13.62,8.13s-13.62-3.64-13.62-8.13v-480.61"/><path class="cls-6" d="m2092.83,1357.29v480.61c0,4.49-6.1,8.13-13.62,8.13s-13.62-3.64-13.62-8.13v-480.61"/><path class="cls-6" d="m119.44,2496.62v480.61c0,4.49-6.1,8.13-13.62,8.13s-13.62-3.64-13.62-8.13v-480.61"/><path class="cls-6" d="m223.31,2436.66v480.61c0,4.49-6.1,8.13-13.62,8.13s-13.62-3.64-13.62-8.13v-480.61"/><path class="cls-6" d="m327.17,2376.69v480.61c0,4.49-6.1,8.13-13.62,8.13s-13.62-3.64-13.62-8.13v-480.61"/><path class="cls-6" d="m431.03,2316.73v480.61c0,4.49-6.1,8.13-13.62,8.13s-13.62-3.64-13.62-8.13v-480.61"/><path class="cls-6" d="m534.89,2256.76v480.61c0,4.49-6.1,8.13-13.62,8.13s-13.62-3.64-13.62-8.13v-480.61"/><path class="cls-6" d="m638.76,2196.8v480.61c0,4.49-6.1,8.13-13.62,8.13s-13.62-3.64-13.62-8.13v-480.61"/><path class="cls-6" d="m742.62,2136.83v480.61c0,4.49-6.1,8.13-13.62,8.13s-13.62-3.64-13.62-8.13v-480.61"/><path class="cls-6" d="m846.48,2076.87v480.61c0,4.49-6.1,8.13-13.62,8.13s-13.62-3.64-13.62-8.13v-480.61"/><path class="cls-6" d="m950.34,2016.9v480.61c0,4.49-6.1,8.13-13.62,8.13s-13.62-3.64-13.62-8.13v-480.61"/><path class="cls-6" d="m1054.2,1956.94v480.61c0,4.49-6.1,8.13-13.62,8.13s-13.62-3.64-13.62-8.13v-480.61"/></g><g><path d="m105.82,2504.49l-23.74-13.71v-64.89c-.02-5.71-.94-10.65-2.61-14.74l26.35-9.7v103.04"/><path d="m209.69,2444.52l-23.74-13.71v-64.89c-.02-5.71-.94-10.65-2.61-14.74l26.35-9.7v103.04"/><path d="m313.55,2384.56l-23.74-13.71v-64.89c-.02-5.71-.94-10.65-2.61-14.74l26.35-9.7v103.04"/><path d="m417.41,2324.59l-23.74-13.71v-64.89c-.02-5.71-.94-10.65-2.61-14.74l26.35-9.7v103.04"/><path d="m521.27,2264.63l-23.74-13.71v-64.89c-.02-5.71-.94-10.65-2.61-14.74l26.35-9.7v103.04"/><path d="m625.13,2204.66l-23.74-13.71v-64.89c-.02-5.71-.94-10.65-2.61-14.74l26.35-9.7v103.04"/><path d="m729,2144.7l-23.74-13.71v-64.89c-.02-5.71-.94-10.65-2.61-14.74l26.35-9.7v103.04"/><path d="m832.86,2084.73l-23.74-13.71v-64.89c-.02-5.71-.94-10.65-2.61-14.74l26.35-9.7v103.04"/><path d="m936.72,2024.77l-23.74-13.71v-64.89c-.02-5.71-.94-10.65-2.61-14.74l26.35-9.7v103.04"/><path d="m1040.58,1964.8l-23.74-13.71v-64.89c-.02-5.71-.94-10.65-2.61-14.74l26.35-9.7v103.04"/><path d="m1144.45,1904.84l-23.74-13.71v-64.89c-.02-5.71-.94-10.65-2.61-14.74l26.35-9.7v103.04"/><path d="m1248.31,1844.87l-23.74-13.71v-64.89c-.02-5.71-.94-10.65-2.61-14.74l26.35-9.7v103.04"/><path d="m1352.17,1784.91l-23.74-13.71v-64.89c-.02-5.71-.94-10.65-2.61-14.74l26.35-9.7v103.04"/><path d="m1456.03,1724.94l-23.74-13.71v-64.89c-.02-5.71-.94-10.65-2.61-14.74l26.35-9.7v103.04"/><path d="m1559.89,1664.98l-23.74-13.71v-64.89c-.02-5.71-.94-10.65-2.61-14.74l26.35-9.7v103.04"/><path d="m1663.76,1605.01l-23.74-13.71v-64.89c-.02-5.71-.94-10.65-2.61-14.74l26.35-9.7v103.04"/><path d="m1767.62,1545.05l-23.74-13.71v-64.89c-.02-5.71-.94-10.65-2.61-14.74l26.35-9.7v103.04"/><path d="m1871.48,1485.08l-23.74-13.71v-64.89c-.02-5.71-.94-10.65-2.61-14.74l26.35-9.7v103.04"/><path d="m1975.34,1425.12l-23.74-13.71v-64.89c-.02-5.71-.94-10.65-2.61-14.74l26.35-9.7v103.04"/><path d="m2079.21,1365.15l-23.74-13.71v-64.89c-.02-5.71-.94-10.65-2.61-14.74l26.35-9.7v103.04"/><path d="m2183.07,1305.19l-23.74-13.71v-64.89c-.02-5.71-.94-10.65-2.61-14.74l26.35-9.7v103.04"/><path d="m2286.93,1245.22l-23.74-13.71v-64.89c-.02-5.71-.94-10.65-2.61-14.74l26.35-9.7v103.04"/><path d="m2390.79,1185.26l-23.74-13.71v-64.89c-.02-5.71-.94-10.65-2.61-14.74l26.35-9.7v103.04"/><path d="m2494.65,1125.29l-23.74-13.71v-64.89c-.02-5.71-.94-10.65-2.61-14.74l26.35-9.7v103.04"/><path d="m2598.52,1065.33l-23.74-13.71v-64.89c-.02-5.71-.94-10.65-2.61-14.74l26.35-9.7v103.04"/><path d="m2702.38,1005.36l-23.74-13.71v-64.89c-.02-5.71-.94-10.65-2.61-14.74l26.35-9.7v103.04"/><path d="m2806.24,945.4l-23.74-13.71v-64.89c-.02-5.71-.94-10.65-2.61-14.74l26.35-9.7v103.04"/><path d="m2910.1,885.43l-23.74-13.71v-64.89c-.02-5.71-.94-10.65-2.61-14.74l26.35-9.7v103.04"/><path d="m3013.97,825.47l-23.74-13.71v-64.89c-.02-5.71-.94-10.65-2.61-14.74l26.35-9.7v103.04"/><path d="m3117.83,765.5l-23.74-13.71v-64.89c-.02-5.71-.94-10.65-2.61-14.74l26.35-9.7v103.04"/><path d="m3221.69,705.54l-23.74-13.71v-64.89c-.02-5.71-.94-10.65-2.61-14.74l26.35-9.7v103.04"/><path d="m3325.55,645.57l-23.74-13.71v-64.89c-.02-5.71-.94-10.65-2.61-14.74l26.35-9.7v103.04"/><path d="m3429.41,585.61l-23.74-13.71v-64.89c-.02-5.71-.94-10.65-2.61-14.74l26.35-9.7v103.04"/><path d="m3533.28,525.64l-23.74-13.71v-64.89c-.02-5.71-.94-10.65-2.61-14.74l26.35-9.7v103.04"/><path d="m3637.14,465.68l-23.74-13.71v-64.89c-.02-5.71-.94-10.65-2.61-14.74l26.35-9.7v103.04"/><path d="m3741,405.71l-23.74-13.71v-64.89c-.02-5.71-.94-10.65-2.61-14.74l26.35-9.7v103.04"/><path d="m3844.86,345.75l-23.74-13.71v-64.89c-.02-5.71-.94-10.65-2.61-14.74l26.35-9.7v103.04"/><path d="m3948.73,285.79l-23.74-13.71v-64.89c-.02-5.71-.94-10.65-2.61-14.74l26.35-9.7v103.04"/><path d="m4052.59,225.82l-23.74-13.71v-64.89c-.02-5.71-.94-10.65-2.61-14.74l26.35-9.7v103.04"/><path d="m4156.45,165.86l-23.74-13.71v-64.89c-.02-5.71-.94-10.65-2.61-14.74l26.35-9.7v103.04"/></g><path class="cls-3" d="m4076.33,212.11l-.18-64.79c-.07-25.45,17.88-56.54,40.02-69.32,22.14-12.78,40.21-2.49,40.28,22.96v64.89l23.74-13.71V0L25.52,2397.85l.18,152.89-.18-64.79c-.07-25.45,17.88-56.54,40.02-69.32,22.14-12.78,40.21-2.49,40.28,22.96v64.89l23.74-13.71-.18-64.79c-.07-25.45,17.88-56.54,40.02-69.32,22.14-12.78,40.21-2.49,40.28,22.96v64.89l23.74-13.71-.18-64.79c-.07-25.45,17.88-56.54,40.02-69.32,22.14-12.78,40.21-2.49,40.28,22.96v64.89l23.74-13.71-.18-64.79c-.07-25.45,17.88-56.54,40.02-69.32,22.14-12.78,40.21-2.49,40.28,22.96v64.89l23.74-13.71-.18-64.79c-.07-25.45,17.88-56.54,40.02-69.32,22.14-12.78,40.21-2.49,40.28,22.96v64.89l23.74-13.71-.18-64.79c-.07-25.45,17.88-56.54,40.02-69.32,22.14-12.78,40.21-2.49,40.28,22.96v64.89l23.74-13.71-.18-64.79c-.07-25.45,17.88-56.54,40.02-69.32,22.14-12.78,40.21-2.49,40.28,22.96v64.89l23.74-13.71-.18-64.79c-.07-25.45,17.88-56.54,40.02-69.32,22.14-12.78,40.21-2.49,40.28,22.96v64.89l23.74-13.71-.18-64.79c-.07-25.45,17.88-56.54,40.02-69.32,22.14-12.78,40.21-2.49,40.28,22.96v64.89l23.74-13.71-.18-64.79c-.07-25.45,17.88-56.54,40.02-69.32,22.14-12.78,40.21-2.49,40.28,22.96v64.89l23.74-13.71-.18-64.79c-.07-25.45,17.88-56.54,40.02-69.32,22.14-12.78,40.21-2.49,40.28,22.96v64.89l23.74-13.71-.18-64.79c-.07-25.45,17.88-56.54,40.02-69.32,22.14-12.78,40.21-2.49,40.28,22.96v64.89l23.74-13.71-.18-64.79c-.07-25.45,17.88-56.54,40.02-69.32,22.14-12.78,40.21-2.49,40.28,22.96v64.89l23.74-13.71-.18-64.79c-.07-25.45,17.88-56.54,40.02-69.32,22.14-12.78,40.21-2.49,40.28,22.96v64.89l23.74-13.71-.18-64.79c-.07-25.45,17.88-56.54,40.02-69.32,22.14-12.78,40.21-2.49,40.28,22.96v64.89l23.74-13.71-.18-64.79c-.07-25.45,17.88-56.54,40.02-69.32,22.14-12.78,40.21-2.49,40.28,22.96v64.89l23.74-13.71-.18-64.79c-.07-25.45,17.88-56.54,40.02-69.32,22.14-12.78,40.21-2.49,40.28,22.96v64.89l23.74-13.71-.18-64.79c-.07-25.45,17.88-56.54,40.02-69.32,22.14-12.78,40.21-2.49,40.28,22.96v64.89l23.74-13.71-.18-64.79c-.07-25.45,17.88-56.54,40.02-69.32,22.14-12.78,40.21-2.49,40.28,22.96v64.89l23.74-13.71-.18-64.79c-.07-25.45,17.88-56.54,40.02-69.32,22.14-12.78,40.21-2.49,40.28,22.96v64.89l23.74-13.71-.18-64.79c-.07-25.45,17.88-56.54,40.02-69.32,22.14-12.78,40.21-2.49,40.28,22.96v64.89l23.74-13.71-.18-64.79c-.07-25.45,17.88-56.54,40.02-69.32,22.14-12.78,40.21-2.49,40.28,22.96v64.89l23.74-13.71-.18-64.79c-.07-25.45,17.88-56.54,40.02-69.32,22.14-12.78,40.21-2.49,40.28,22.96v64.89l23.74-13.71-.18-64.79c-.07-25.45,17.88-56.54,40.02-69.32,22.14-12.78,40.21-2.49,40.28,22.96v64.89l23.74-13.71-.18-64.79c-.07-25.45,17.88-56.54,40.02-69.32,22.14-12.78,40.21-2.49,40.28,22.96v64.89l23.74-13.71-.18-64.79c-.07-25.45,17.88-56.54,40.02-69.32,22.14-12.78,40.21-2.49,40.28,22.96v64.89l23.74-13.71-.18-64.79c-.07-25.45,17.88-56.54,40.02-69.32,22.14-12.78,40.21-2.49,40.28,22.96v64.89l23.74-13.71-.18-64.79c-.07-25.45,17.88-56.54,40.02-69.32,22.14-12.78,40.21-2.49,40.28,22.96v64.89l23.74-13.71-.18-64.79c-.07-25.45,17.88-56.54,40.02-69.32,22.14-12.78,40.21-2.49,40.28,22.96v64.89l23.74-13.71-.18-64.79c-.07-25.45,17.88-56.54,40.02-69.32,22.14-12.78,40.21-2.49,40.28,22.96v64.89l23.74-13.71-.18-64.79c-.07-25.45,17.88-56.54,40.02-69.32,22.14-12.78,40.21-2.49,40.28,22.96v64.89l23.74-13.71-.18-64.79c-.07-25.45,17.88-56.54,40.02-69.32,22.14-12.78,40.21-2.49,40.28,22.96v64.89l23.74-13.71-.18-64.79c-.07-25.45,17.88-56.54,40.02-69.32,22.14-12.78,40.21-2.49,40.28,22.96v64.89l23.74-13.71-.18-64.79c-.07-25.45,17.88-56.54,40.02-69.32,22.14-12.78,40.21-2.49,40.28,22.96v64.89l23.74-13.71-.18-64.79c-.07-25.45,17.88-56.54,40.02-69.32,22.14-12.78,40.21-2.49,40.28,22.96v64.89l23.74-13.71-.18-64.79c-.07-25.45,17.88-56.54,40.02-69.32,22.14-12.78,40.21-2.49,40.28,22.96v64.89l23.74-13.71-.18-64.79c-.07-25.45,17.88-56.54,40.02-69.32,22.14-12.78,40.21-2.49,40.28,22.96v64.89l23.74-13.71-.18-64.79c-.07-25.45,17.88-56.54,40.02-69.32,22.14-12.78,40.21-2.49,40.28,22.96v64.89l23.74-13.71-.18-64.79c-.07-25.45,17.88-56.54,40.02-69.32,22.14-12.78,40.21-2.49,40.28,22.96v64.89l23.74-13.71Z"/></g><polygon class="cls-1" points="94.84 2561.38 4155.05 217.22 4155.05 34.3 94.84 2378.46 94.84 2561.38"/><g><polygon class="cls-2" points="1873.87 1431.32 1914.53 1407.85 1922.16 1412.25 1881.5 1435.72 1873.87 1431.32"/><polygon class="cls-2" points="1821.37 1461.63 1862.03 1438.16 1869.66 1442.56 1829 1466.04 1821.37 1461.63"/><polygon class="cls-2" points="1768.87 1491.94 1809.53 1468.47 1817.16 1472.87 1776.5 1496.35 1768.87 1491.94"/><polygon class="cls-2" points="1926.38 1401.01 1967.03 1377.53 1974.66 1381.94 1934.01 1405.41 1926.38 1401.01"/><polygon class="cls-2" points="1978.88 1370.7 2019.53 1347.22 2027.17 1351.63 1986.51 1375.1 1978.88 1370.7"/><polygon class="cls-2" points="2031.38 1340.38 2072.04 1316.91 2079.67 1321.32 2039.01 1344.79 2031.38 1340.38"/><polygon class="cls-2" points="2083.88 1310.07 2124.54 1286.6 2132.17 1291 2091.51 1314.48 2083.88 1310.07"/><polygon class="cls-2" points="2136.38 1279.76 2177.04 1256.29 2184.67 1260.69 2144.01 1284.17 2136.38 1279.76"/><polygon class="cls-2" points="2188.88 1249.45 2229.54 1225.98 2237.17 1230.38 2196.51 1253.86 2188.88 1249.45"/><polygon class="cls-2" points="2241.38 1219.14 2282.04 1195.66 2289.67 1200.07 2249.01 1223.54 2241.38 1219.14"/><polygon class="cls-2" points="2293.88 1188.83 2334.54 1165.35 2342.17 1169.76 2301.51 1193.23 2293.88 1188.83"/><polygon class="cls-2" points="2346.39 1158.52 2387.04 1135.04 2394.67 1139.45 2354.02 1162.92 2346.39 1158.52"/><polygon class="cls-2" points="2398.89 1128.2 2439.54 1104.73 2447.17 1109.13 2406.52 1132.61 2398.89 1128.2"/><polygon class="cls-2" points="2451.39 1097.89 2492.05 1074.42 2499.68 1078.82 2459.02 1102.3 2451.39 1097.89"/><polygon class="cls-2" points="2503.89 1067.58 2544.55 1044.11 2552.18 1048.51 2511.52 1071.99 2503.89 1067.58"/><polygon class="cls-2" points="2556.39 1037.27 2597.05 1013.79 2604.68 1018.2 2564.02 1041.67 2556.39 1037.27"/><polygon class="cls-2" points="2608.89 1006.96 2649.55 983.48 2657.18 987.89 2616.52 1011.36 2608.89 1006.96"/><polygon class="cls-2" points="2661.39 976.65 2702.05 953.17 2709.68 957.58 2669.02 981.05 2661.39 976.65"/><polygon class="cls-2" points="2713.89 946.33 2754.55 922.86 2762.18 927.27 2721.52 950.74 2713.89 946.33"/><polygon class="cls-2" points="2766.39 916.02 2807.05 892.55 2814.68 896.95 2774.03 920.43 2766.39 916.02"/><polygon class="cls-2" points="2818.9 885.71 2859.55 862.24 2867.18 866.64 2826.53 890.12 2818.9 885.71"/><polygon class="cls-2" points="2871.4 855.4 2912.06 831.93 2919.69 836.33 2879.03 859.8 2871.4 855.4"/><polygon class="cls-2" points="2923.9 825.09 2964.56 801.61 2972.19 806.02 2931.53 829.49 2923.9 825.09"/><polygon class="cls-2" points="2976.4 794.78 3017.06 771.3 3024.69 775.71 2984.03 799.18 2976.4 794.78"/><polygon class="cls-2" points="3028.9 764.46 3069.56 740.99 3077.19 745.4 3036.53 768.87 3028.9 764.46"/><polygon class="cls-2" points="3081.4 734.15 3122.06 710.68 3129.69 715.08 3089.03 738.56 3081.4 734.15"/><polygon class="cls-2" points="3133.9 703.84 3174.56 680.37 3182.19 684.77 3141.53 708.25 3133.9 703.84"/><polygon class="cls-2" points="3186.4 673.53 3227.06 650.06 3234.69 654.46 3194.03 677.94 3186.4 673.53"/><polygon class="cls-2" points="3238.91 643.22 3279.56 619.74 3287.19 624.15 3246.54 647.62 3238.91 643.22"/><polygon class="cls-2" points="3291.41 612.91 3332.06 589.43 3339.7 593.84 3299.04 617.31 3291.41 612.91"/><polygon class="cls-2" points="3343.91 582.6 3384.57 559.12 3392.2 563.53 3351.54 587 3343.91 582.6"/><polygon class="cls-2" points="3396.41 552.28 3437.07 528.81 3444.7 533.21 3404.04 556.69 3396.41 552.28"/><polygon class="cls-2" points="3448.91 521.97 3489.57 498.5 3497.2 502.9 3456.54 526.38 3448.91 521.97"/><polygon class="cls-2" points="3501.41 491.66 3542.07 468.19 3549.7 472.59 3509.04 496.07 3501.41 491.66"/><polygon class="cls-2" points="3553.91 461.35 3594.57 437.87 3602.2 442.28 3561.54 465.75 3553.91 461.35"/><polygon class="cls-2" points="3606.41 431.04 3647.07 407.56 3654.7 411.97 3614.04 435.44 3606.41 431.04"/><polygon class="cls-2" points="3658.92 400.73 3699.57 377.25 3707.2 381.66 3666.55 405.13 3658.92 400.73"/><polygon class="cls-2" points="3711.42 370.41 3752.07 346.94 3759.7 351.35 3719.05 374.82 3711.42 370.41"/><polygon class="cls-2" points="3763.92 340.1 3804.58 316.63 3812.21 321.03 3771.55 344.51 3763.92 340.1"/><polygon class="cls-2" points="3816.42 309.79 3857.08 286.32 3864.71 290.72 3824.05 314.2 3816.42 309.79"/><polygon class="cls-2" points="3868.92 279.48 3909.58 256.01 3917.21 260.41 3876.55 283.88 3868.92 279.48"/><polygon class="cls-2" points="3921.42 249.17 3962.08 225.69 3969.71 230.1 3929.05 253.57 3921.42 249.17"/><polygon class="cls-2" points="3973.92 218.86 4014.58 195.38 4022.21 199.79 3981.55 223.26 3973.92 218.86"/><polygon class="cls-2" points="4026.42 188.54 4067.08 165.07 4074.71 169.48 4034.05 192.95 4026.42 188.54"/><polygon class="cls-2" points="4078.92 158.23 4119.58 134.76 4127.21 139.16 4086.55 162.64 4078.92 158.23"/><polygon class="cls-2" points="4131.43 127.92 4172.08 104.45 4179.71 108.85 4139.06 132.33 4131.43 127.92"/><polygon class="cls-2" points="89.05 2462.45 129.7 2438.97 137.33 2443.38 96.68 2466.85 89.05 2462.45"/><polygon class="cls-2" points="141.55 2432.13 182.21 2408.66 189.84 2413.06 149.18 2436.54 141.55 2432.13"/><polygon class="cls-2" points="194.05 2401.82 234.71 2378.35 242.34 2382.75 201.68 2406.23 194.05 2401.82"/><polygon class="cls-2" points="246.55 2371.51 287.21 2348.04 294.84 2352.44 254.18 2375.92 246.55 2371.51"/><polygon class="cls-2" points="299.05 2341.2 339.71 2317.72 347.34 2322.13 306.68 2345.6 299.05 2341.2"/><polygon class="cls-2" points="351.55 2310.89 392.21 2287.41 399.84 2291.82 359.18 2315.29 351.55 2310.89"/><polygon class="cls-2" points="404.05 2280.58 444.71 2257.1 452.34 2261.51 411.68 2284.98 404.05 2280.58"/><polygon class="cls-2" points="456.56 2250.26 497.21 2226.79 504.84 2231.2 464.19 2254.67 456.56 2250.26"/><polygon class="cls-2" points="509.06 2219.95 549.71 2196.48 557.34 2200.88 516.69 2224.36 509.06 2219.95"/><polygon class="cls-2" points="561.56 2189.64 602.22 2166.17 609.85 2170.57 569.19 2194.05 561.56 2189.64"/><polygon class="cls-2" points="614.06 2159.33 654.72 2135.86 662.35 2140.26 621.69 2163.73 614.06 2159.33"/><polygon class="cls-2" points="666.56 2129.02 707.22 2105.54 714.85 2109.95 674.19 2133.42 666.56 2129.02"/><polygon class="cls-2" points="719.06 2098.71 759.72 2075.23 767.35 2079.64 726.69 2103.11 719.06 2098.71"/><polygon class="cls-2" points="771.56 2068.39 812.22 2044.92 819.85 2049.33 779.19 2072.8 771.56 2068.39"/><polygon class="cls-2" points="824.06 2038.08 864.72 2014.61 872.35 2019.01 831.69 2042.49 824.06 2038.08"/><polygon class="cls-2" points="876.56 2007.77 917.22 1984.3 924.85 1988.7 884.19 2012.18 876.56 2007.77"/><polygon class="cls-2" points="929.07 1977.46 969.72 1953.99 977.35 1958.39 936.7 1981.87 929.07 1977.46"/><polygon class="cls-2" points="981.57 1947.15 1022.23 1923.67 1029.86 1928.08 989.2 1951.55 981.57 1947.15"/><polygon class="cls-2" points="1034.07 1916.84 1074.73 1893.36 1082.36 1897.77 1041.7 1921.24 1034.07 1916.84"/><polygon class="cls-2" points="1086.57 1886.53 1127.23 1863.05 1134.86 1867.46 1094.2 1890.93 1086.57 1886.53"/><polygon class="cls-2" points="1139.07 1856.21 1179.73 1832.74 1187.36 1837.14 1146.7 1860.62 1139.07 1856.21"/><polygon class="cls-2" points="1191.57 1825.9 1232.23 1802.43 1239.86 1806.83 1199.2 1830.31 1191.57 1825.9"/><polygon class="cls-2" points="1244.07 1795.59 1284.73 1772.12 1292.36 1776.52 1251.7 1800 1244.07 1795.59"/><polygon class="cls-2" points="1296.57 1765.28 1337.23 1741.8 1344.86 1746.21 1304.2 1769.68 1296.57 1765.28"/><polygon class="cls-2" points="1349.08 1734.97 1389.73 1711.49 1397.36 1715.9 1356.71 1739.37 1349.08 1734.97"/><polygon class="cls-2" points="1401.58 1704.66 1442.23 1681.18 1449.86 1685.59 1409.21 1709.06 1401.58 1704.66"/><polygon class="cls-2" points="1454.08 1674.34 1494.74 1650.87 1502.37 1655.28 1461.71 1678.75 1454.08 1674.34"/><polygon class="cls-2" points="1506.58 1644.03 1547.24 1620.56 1554.87 1624.96 1514.21 1648.44 1506.58 1644.03"/><polygon class="cls-2" points="1559.08 1613.72 1599.74 1590.25 1607.37 1594.65 1566.71 1618.13 1559.08 1613.72"/><polygon class="cls-2" points="1611.58 1583.41 1652.24 1559.94 1659.87 1564.34 1619.21 1587.81 1611.58 1583.41"/><polygon class="cls-2" points="1664.08 1553.1 1704.74 1529.62 1712.37 1534.03 1671.71 1557.5 1664.08 1553.1"/><polygon class="cls-2" points="1716.58 1522.79 1757.24 1499.31 1764.87 1503.72 1724.21 1527.19 1716.58 1522.79"/></g><path class="cls-5" d="m1404.54,1860.62c1.67,4.09,2.59,9.04,2.61,14.74v64.89l23.74,13.71"/><path class="cls-5" d="m1508.4,1800.66c1.67,4.09,2.59,9.04,2.61,14.74v64.89l23.74,13.71"/><g><g><path class="cls-6" d="m3210.17,926.7v480.61c0,4.49-6.1,8.13-13.62,8.13s-13.62-3.64-13.62-8.13v-480.61"/><path class="cls-6" d="m3314.03,866.73v480.61c0,4.49-6.1,8.13-13.62,8.13s-13.62-3.64-13.62-8.13v-480.61"/><path class="cls-6" d="m3417.89,806.77v480.61c0,4.49-6.1,8.13-13.62,8.13s-13.62-3.64-13.62-8.13v-480.61"/><path class="cls-6" d="m3521.75,746.81v480.61c0,4.49-6.1,8.13-13.62,8.13s-13.62-3.64-13.62-8.13v-480.61"/><path class="cls-6" d="m3625.62,686.84v480.61c0,4.49-6.1,8.13-13.62,8.13s-13.62-3.64-13.62-8.13v-480.61"/><path class="cls-6" d="m3729.48,626.88v480.61c0,4.49-6.1,8.13-13.62,8.13s-13.62-3.64-13.62-8.13v-480.61"/><path class="cls-6" d="m3833.34,566.91v480.61c0,4.49-6.1,8.13-13.62,8.13s-13.62-3.64-13.62-8.13v-480.61"/><path class="cls-6" d="m3937.2,506.95v480.61c0,4.49-6.1,8.13-13.62,8.13s-13.62-3.64-13.62-8.13v-480.61"/><path class="cls-6" d="m4041.06,446.98v480.61c0,4.49-6.1,8.13-13.62,8.13s-13.62-3.64-13.62-8.13v-480.61"/><path class="cls-6" d="m4144.93,387.02v480.61c0,4.49-6.1,8.13-13.62,8.13s-13.62-3.64-13.62-8.13v-480.61"/><path class="cls-6" d="m2171.54,1526.35v480.61c0,4.49-6.1,8.13-13.62,8.13s-13.62-3.64-13.62-8.13v-480.61"/><path class="cls-6" d="m2275.41,1466.38v480.61c0,4.49-6.1,8.13-13.62,8.13s-13.62-3.64-13.62-8.13v-480.61"/><path class="cls-6" d="m2379.27,1406.42v480.61c0,4.49-6.1,8.13-13.62,8.13s-13.62-3.64-13.62-8.13v-480.61"/><path class="cls-6" d="m2483.13,1346.45v480.61c0,4.49-6.1,8.13-13.62,8.13s-13.62-3.64-13.62-8.13v-480.61"/><path class="cls-6" d="m2586.99,1286.49v480.61c0,4.49-6.1,8.13-13.62,8.13s-13.62-3.64-13.62-8.13v-480.61"/><path class="cls-6" d="m2690.86,1226.52v480.61c0,4.49-6.1,8.13-13.62,8.13s-13.62-3.64-13.62-8.13v-480.61"/><path class="cls-6" d="m2794.72,1166.56v480.61c0,4.49-6.1,8.13-13.62,8.13s-13.62-3.64-13.62-8.13v-480.61"/><path class="cls-6" d="m2898.58,1106.59v480.61c0,4.49-6.1,8.13-13.62,8.13s-13.62-3.64-13.62-8.13v-480.61"/><path class="cls-6" d="m3002.44,1046.63v480.61c0,4.49-6.1,8.13-13.62,8.13s-13.62-3.64-13.62-8.13v-480.61"/><path class="cls-6" d="m3106.3,986.66v480.61c0,4.49-6.1,8.13-13.62,8.13s-13.62-3.64-13.62-8.13v-480.61"/><path class="cls-6" d="m1132.92,2126v480.61c0,4.49-6.1,8.13-13.62,8.13s-13.62-3.64-13.62-8.13v-480.61"/><path class="cls-6" d="m1236.78,2066.03v480.61c0,4.49-6.1,8.13-13.62,8.13s-13.62-3.64-13.62-8.13v-480.61"/><path class="cls-6" d="m1340.65,2006.07v480.61c0,4.49-6.1,8.13-13.62,8.13s-13.62-3.64-13.62-8.13v-480.61"/><path class="cls-6" d="m1444.51,1946.1v480.61c0,4.49-6.1,8.13-13.62,8.13s-13.62-3.64-13.62-8.13v-480.61"/><path class="cls-6" d="m1548.37,1886.14v480.61c0,4.49-6.1,8.13-13.62,8.13s-13.62-3.64-13.62-8.13v-480.61"/><path class="cls-6" d="m1652.23,1826.17v480.61c0,4.49-6.1,8.13-13.62,8.13s-13.62-3.64-13.62-8.13v-480.61"/><path class="cls-6" d="m1756.1,1766.21v480.61c0,4.49-6.1,8.13-13.62,8.13s-13.62-3.64-13.62-8.13v-480.61"/><path class="cls-6" d="m1859.96,1706.24v480.61c0,4.49-6.1,8.13-13.62,8.13s-13.62-3.64-13.62-8.13v-480.61"/><path class="cls-6" d="m1963.82,1646.28v480.61c0,4.49-6.1,8.13-13.62,8.13s-13.62-3.64-13.62-8.13v-480.61"/><path class="cls-6" d="m2067.68,1586.31v480.61c0,4.49-6.1,8.13-13.62,8.13s-13.62-3.64-13.62-8.13v-480.61"/><path class="cls-6" d="m94.3,2725.65v480.61c0,4.49-6.1,8.13-13.62,8.13s-13.62-3.64-13.62-8.13v-480.61"/><path class="cls-6" d="m198.16,2665.68v480.61c0,4.49-6.1,8.13-13.62,8.13s-13.62-3.64-13.62-8.13v-480.61"/><path class="cls-6" d="m302.02,2605.72v480.61c0,4.49-6.1,8.13-13.62,8.13s-13.62-3.64-13.62-8.13v-480.61"/><path class="cls-6" d="m405.89,2545.75v480.61c0,4.49-6.1,8.13-13.62,8.13s-13.62-3.64-13.62-8.13v-480.61"/><path class="cls-6" d="m509.75,2485.79v480.61c0,4.49-6.1,8.13-13.62,8.13s-13.62-3.64-13.62-8.13v-480.61"/><path class="cls-6" d="m613.61,2425.82v480.61c0,4.49-6.1,8.13-13.62,8.13s-13.62-3.64-13.62-8.13v-480.61"/><path class="cls-6" d="m717.47,2365.86v480.61c0,4.49-6.1,8.13-13.62,8.13s-13.62-3.64-13.62-8.13v-480.61"/><path class="cls-6" d="m821.34,2305.89v480.61c0,4.49-6.1,8.13-13.62,8.13s-13.62-3.64-13.62-8.13v-480.61"/><path class="cls-6" d="m925.2,2245.93v480.61c0,4.49-6.1,8.13-13.62,8.13s-13.62-3.64-13.62-8.13v-480.61"/><path class="cls-6" d="m1029.06,2185.96v480.61c0,4.49-6.1,8.13-13.62,8.13s-13.62-3.64-13.62-8.13v-480.61"/></g><g><path d="m80.68,2733.51l-23.74-13.71v-64.89c-.02-5.71-.94-10.65-2.61-14.74l26.35-9.7v103.04"/><path d="m184.54,2673.55l-23.74-13.71v-64.89c-.02-5.71-.94-10.65-2.61-14.74l26.35-9.7v103.04"/><path d="m288.4,2613.58l-23.74-13.71v-64.89c-.02-5.71-.94-10.65-2.61-14.74l26.35-9.7v103.04"/><path d="m392.27,2553.62l-23.74-13.71v-64.89c-.02-5.71-.94-10.65-2.61-14.74l26.35-9.7v103.04"/><path d="m496.13,2493.65l-23.74-13.71v-64.89c-.02-5.71-.94-10.65-2.61-14.74l26.35-9.7v103.04"/><path d="m599.99,2433.69l-23.74-13.71v-64.89c-.02-5.71-.94-10.65-2.61-14.74l26.35-9.7v103.04"/><path d="m703.85,2373.72l-23.74-13.71v-64.89c-.02-5.71-.94-10.65-2.61-14.74l26.35-9.7v103.04"/><path d="m807.71,2313.76l-23.74-13.71v-64.89c-.02-5.71-.94-10.65-2.61-14.74l26.35-9.7v103.04"/><path d="m911.58,2253.79l-23.74-13.71v-64.89c-.02-5.71-.94-10.65-2.61-14.74l26.35-9.7v103.04"/><path d="m1015.44,2193.83l-23.74-13.71v-64.89c-.02-5.71-.94-10.65-2.61-14.74l26.35-9.7v103.04"/><path d="m1119.3,2133.86l-23.74-13.71v-64.89c-.02-5.71-.94-10.65-2.61-14.74l26.35-9.7v103.04"/><path d="m1223.16,2073.9l-23.74-13.71v-64.89c-.02-5.71-.94-10.65-2.61-14.74l26.35-9.7v103.04"/><path d="m1327.03,2013.93l-23.74-13.71v-64.89c-.02-5.71-.94-10.65-2.61-14.74l26.35-9.7v103.04"/><path d="m1430.89,1953.97l-23.74-13.71v-64.89c-.02-5.71-.94-10.65-2.61-14.74l26.35-9.7v103.04"/><path d="m1534.75,1894l-23.74-13.71v-64.89c-.02-5.71-.94-10.65-2.61-14.74l26.35-9.7v103.04"/><path d="m1638.61,1834.04l-23.74-13.71v-64.89c-.02-5.71-.94-10.65-2.61-14.74l26.35-9.7v103.04"/><path d="m1742.47,1774.07l-23.74-13.71v-64.89c-.02-5.71-.94-10.65-2.61-14.74l26.35-9.7v103.04"/><path d="m1846.34,1714.11l-23.74-13.71v-64.89c-.02-5.71-.94-10.65-2.61-14.74l26.35-9.7v103.04"/><path d="m1950.2,1654.14l-23.74-13.71v-64.89c-.02-5.71-.94-10.65-2.61-14.74l26.35-9.7v103.04"/><path d="m2054.06,1594.18l-23.74-13.71v-64.89c-.02-5.71-.94-10.65-2.61-14.74l26.35-9.7v103.04"/><path d="m2157.92,1534.21l-23.74-13.71v-64.89c-.02-5.71-.94-10.65-2.61-14.74l26.35-9.7v103.04"/><path d="m2261.79,1474.25l-23.74-13.71v-64.89c-.02-5.71-.94-10.65-2.61-14.74l26.35-9.7v103.04"/><path d="m2365.65,1414.28l-23.74-13.71v-64.89c-.02-5.71-.94-10.65-2.61-14.74l26.35-9.7v103.04"/><path d="m2469.51,1354.32l-23.74-13.71v-64.89c-.02-5.71-.94-10.65-2.61-14.74l26.35-9.7v103.04"/><path d="m2573.37,1294.35l-23.74-13.71v-64.89c-.02-5.71-.94-10.65-2.61-14.74l26.35-9.7v103.04"/><path d="m2677.23,1234.39l-23.74-13.71v-64.89c-.02-5.71-.94-10.65-2.61-14.74l26.35-9.7v103.04"/><path d="m2781.1,1174.42l-23.74-13.71v-64.89c-.02-5.71-.94-10.65-2.61-14.74l26.35-9.7v103.04"/><path d="m2884.96,1114.46l-23.74-13.71v-64.89c-.02-5.71-.94-10.65-2.61-14.74l26.35-9.7v103.04"/><path d="m2988.82,1054.49l-23.74-13.71v-64.89c-.02-5.71-.94-10.65-2.61-14.74l26.35-9.7v103.04"/><path d="m3092.68,994.53l-23.74-13.71v-64.89c-.02-5.71-.94-10.65-2.61-14.74l26.35-9.7v103.04"/><path d="m3196.54,934.56l-23.74-13.71v-64.89c-.02-5.71-.94-10.65-2.61-14.74l26.35-9.7v103.04"/><path d="m3300.41,874.6l-23.74-13.71v-64.89c-.02-5.71-.94-10.65-2.61-14.74l26.35-9.7v103.04"/><path d="m3404.27,814.63l-23.74-13.71v-64.89c-.02-5.71-.94-10.65-2.61-14.74l26.35-9.7v103.04"/><path d="m3508.13,754.67l-23.74-13.71v-64.89c-.02-5.71-.94-10.65-2.61-14.74l26.35-9.7v103.04"/><path d="m3611.99,694.7l-23.74-13.71v-64.89c-.02-5.71-.94-10.65-2.61-14.74l26.35-9.7v103.04"/><path d="m3715.86,634.74l-23.74-13.71v-64.89c-.02-5.71-.94-10.65-2.61-14.74l26.35-9.7v103.04"/><path d="m3819.72,574.77l-23.74-13.71v-64.89c-.02-5.71-.94-10.65-2.61-14.74l26.35-9.7v103.04"/><path d="m3923.58,514.81l-23.74-13.71v-64.89c-.02-5.71-.94-10.65-2.61-14.74l26.35-9.7v103.04"/><path d="m4027.44,454.85l-23.74-13.71v-64.89c-.02-5.71-.94-10.65-2.61-14.74l26.35-9.7v103.04"/><path d="m4131.3,394.88l-23.74-13.71v-64.89c-.02-5.71-.94-10.65-2.61-14.74l26.35-9.7v103.04"/></g><path class="cls-4" d="m4051.19,441.14l-.18-64.79c-.07-25.45,17.88-56.54,40.02-69.32,22.14-12.78,40.21-2.49,40.28,22.96v64.89l23.74-13.71v-152.15L.38,2626.87l.18,152.89-.18-64.79c-.07-25.45,17.88-56.54,40.02-69.32,22.14-12.78,40.21-2.49,40.28,22.96v64.89l23.74-13.71-.18-64.79c-.07-25.45,17.88-56.54,40.02-69.32,22.14-12.78,40.21-2.49,40.28,22.96v64.89l23.74-13.71-.18-64.79c-.07-25.45,17.88-56.54,40.02-69.32,22.14-12.78,40.21-2.49,40.28,22.96v64.89l23.74-13.71-.18-64.79c-.07-25.45,17.88-56.54,40.02-69.32,22.14-12.78,40.21-2.49,40.28,22.96v64.89l23.74-13.71-.18-64.79c-.07-25.45,17.88-56.54,40.02-69.32,22.14-12.78,40.21-2.49,40.28,22.96v64.89l23.74-13.71-.18-64.79c-.07-25.45,17.88-56.54,40.02-69.32,22.14-12.78,40.21-2.49,40.28,22.96v64.89l23.74-13.71-.18-64.79c-.07-25.45,17.88-56.54,40.02-69.32,22.14-12.78,40.21-2.49,40.28,22.96v64.89l23.74-13.71-.18-64.79c-.07-25.45,17.88-56.54,40.02-69.32,22.14-12.78,40.21-2.49,40.28,22.96v64.89l23.74-13.71-.18-64.79c-.07-25.45,17.88-56.54,40.02-69.32,22.14-12.78,40.21-2.49,40.28,22.96v64.89l23.74-13.71-.18-64.79c-.07-25.45,17.88-56.54,40.02-69.32,22.14-12.78,40.21-2.49,40.28,22.96v64.89l23.74-13.71-.18-64.79c-.07-25.45,17.88-56.54,40.02-69.32,22.14-12.78,40.21-2.49,40.28,22.96v64.89l23.74-13.71-.18-64.79c-.07-25.45,17.88-56.54,40.02-69.32s40.21-2.49,40.28,22.96v64.89l23.74-13.71-.18-64.79c-.07-25.45,17.88-56.54,40.02-69.32,22.14-12.78,40.21-2.49,40.28,22.96v64.89l23.74-13.71-.18-64.79c-.07-25.45,17.88-56.54,40.02-69.32,22.14-12.78,40.21-2.49,40.28,22.96v64.89l23.74-13.71-.18-64.79c-.07-25.45,17.88-56.54,40.02-69.32,22.14-12.78,40.21-2.49,40.28,22.96v64.89l23.74-13.71-.18-64.79c-.07-25.45,17.88-56.54,40.02-69.32,22.14-12.78,40.21-2.49,40.28,22.96v64.89l23.74-13.71-.18-64.79c-.07-25.45,17.88-56.54,40.02-69.32s40.21-2.49,40.28,22.96v64.89l23.74-13.71-.18-64.79c-.07-25.45,17.88-56.54,40.02-69.32,22.14-12.78,40.21-2.49,40.28,22.96v64.89l23.74-13.71-.18-64.79c-.07-25.45,17.88-56.54,40.02-69.32,22.14-12.78,40.21-2.49,40.28,22.96v64.89l23.74-13.71-.18-64.79c-.07-25.45,17.88-56.54,40.02-69.32,22.14-12.78,40.21-2.49,40.28,22.96v64.89l23.74-13.71-.18-64.79c-.07-25.45,17.88-56.54,40.02-69.32,22.14-12.78,40.21-2.49,40.28,22.96v64.89l23.74-13.71-.18-64.79c-.07-25.45,17.88-56.54,40.02-69.32,22.14-12.78,40.21-2.49,40.28,22.96v64.89l23.74-13.71-.18-64.79c-.07-25.45,17.88-56.54,40.02-69.32,22.14-12.78,40.21-2.49,40.28,22.96v64.89l23.74-13.71-.18-64.79c-.07-25.45,17.88-56.54,40.02-69.32,22.14-12.78,40.21-2.49,40.28,22.96v64.89l23.74-13.71-.18-64.79c-.07-25.45,17.88-56.54,40.02-69.32,22.14-12.78,40.21-2.49,40.28,22.96v64.89l23.74-13.71-.18-64.79c-.07-25.45,17.88-56.54,40.02-69.32,22.14-12.78,40.21-2.49,40.28,22.96v64.89l23.74-13.71-.18-64.79c-.07-25.45,17.88-56.54,40.02-69.32,22.14-12.78,40.21-2.49,40.28,22.96v64.89l23.74-13.71-.18-64.79c-.07-25.45,17.88-56.54,40.02-69.32,22.14-12.78,40.21-2.49,40.28,22.96v64.89l23.74-13.71-.18-64.79c-.07-25.45,17.88-56.54,40.02-69.32,22.14-12.78,40.21-2.49,40.28,22.96v64.89l23.74-13.71-.18-64.79c-.07-25.45,17.88-56.54,40.02-69.32,22.14-12.78,40.21-2.49,40.28,22.96v64.89l23.74-13.71-.18-64.79c-.07-25.45,17.88-56.54,40.02-69.32,22.14-12.78,40.21-2.49,40.28,22.96v64.89l23.74-13.71-.18-64.79c-.07-25.45,17.88-56.54,40.02-69.32,22.14-12.78,40.21-2.49,40.28,22.96v64.89l23.74-13.71-.18-64.79c-.07-25.45,17.88-56.54,40.02-69.32,22.14-12.78,40.21-2.49,40.28,22.96v64.89l23.74-13.71-.18-64.79c-.07-25.45,17.88-56.54,40.02-69.32,22.14-12.78,40.21-2.49,40.28,22.96v64.89l23.74-13.71-.18-64.79c-.07-25.45,17.88-56.54,40.02-69.32,22.14-12.78,40.21-2.49,40.28,22.96v64.89l23.74-13.71-.18-64.79c-.07-25.45,17.88-56.54,40.02-69.32,22.14-12.78,40.21-2.49,40.28,22.96v64.89l23.74-13.71-.18-64.79c-.07-25.45,17.88-56.54,40.02-69.32,22.14-12.78,40.21-2.49,40.28,22.96v64.89l23.74-13.71-.18-64.79c-.07-25.45,17.88-56.54,40.02-69.32,22.14-12.78,40.21-2.49,40.28,22.96v64.89l23.74-13.71-.18-64.79c-.07-25.45,17.88-56.54,40.02-69.32,22.14-12.78,40.21-2.49,40.28,22.96v64.89l23.74-13.71Z"/></g><polygon class="cls-2" points="4155.05 229.02 4155.05 217.22 94.84 2561.38 94.84 2573.19 4155.05 229.02"/><polygon class="cls-2" points="4155.05 25.49 4155.05 13.68 94.84 2357.84 94.84 2369.65 4155.05 25.49"/><polygon class="cls-3" points="4155.05 34.3 4155.05 25.49 94.84 2369.65 94.84 2378.46 4155.05 34.3"/></g></g></svg>